<svg xmlns="http://www.w3.org/2000/svg" width="204" height="204" viewBox="0 0 204 204">
  <defs>
    <style>
      .a {
        fill: #fff;
      }

      .b {
        fill: #ffa4cc;
      }

      .c {
        fill: #7ce2de;
      }

      .d {
        fill: #2d2d2d;
      }
    </style>
  </defs>
  <title>Asset 167</title>
  <g>
    <polygon class="a" points="2 87.714 30.571 59.143 59.142 59.143 59.142 30.571 87.714 2 144.857 2 144.857 59.143 202 59.143 202 116.285 173.428 144.857 144.857 144.857 144.857 173.428 116.285 202 59.142 202 59.142 144.857 2 144.857 2 87.714"/>
    <polygon class="b" points="59.142 30.571 87.714 2 144.857 2 116.285 30.571 59.142 30.571"/>
    <polygon class="c" points="2 144.857 2 87.714 59.142 87.714 59.142 30.571 116.285 30.571 116.285 87.714 173.428 87.714 173.428 144.857 116.285 144.857 116.285 202 59.142 202 59.142 144.857 2 144.857"/>
    <polygon class="b" points="202 59.143 173.428 87.714 173.428 144.857 202 116.285 202 59.143"/>
    <path class="d" d="M146.85645,57.14258V0H86.88574L57.14258,29.74316V57.14258H29.74316L0,86.88574v59.97071H57.14258V204h59.9707l29.74317-29.74316V146.85645h27.39941L204,117.11328V57.14258Zm25.74316,28.57129h-22.915l24.57129-24.57129h22.916Zm-4-24.57129L144.02832,85.71387h-22.915l24.57129-24.57129ZM118.28516,31.39941,142.85645,6.82812v22.915L118.28516,54.31445Zm0,28.57129,24.57129-24.57129v22.915L118.28516,82.88574ZM88.542,4h51.48633L115.457,28.57129H63.9707ZM31.39941,61.14258h22.915L29.74316,85.71387H6.82812ZM57.14258,63.9707V85.71387H35.39941Zm61.14258,133.20118v-22.915l24.57129-24.57215v22.9159Zm0-28.57142v-21.744h21.74316Zm24.57129-25.744H114.28516V200H61.14258V142.85645H4V89.71387H61.14258V32.57129h53.14258V89.71387h57.14257v53.14258Zm32.57128-2.828V88.542L200,63.97058V115.457Z"/>
  </g>
</svg>
